<?xml version="1.0" encoding="utf-8"?>
<!-- Generator: Adobe Illustrator 22.1.0, SVG Export Plug-In . SVG Version: 6.00 Build 0)  -->
<svg version="1.1" id="Layer_1" xmlns="http://www.w3.org/2000/svg" xmlns:xlink="http://www.w3.org/1999/xlink" x="0px" y="0px"
	 viewBox="0 0 80 80" style="enable-background:new 0 0 80 80;" xml:space="preserve">
<style type="text/css">
	.st0{fill:none;stroke:#000000;stroke-miterlimit:10;}
</style>
<title>customer_management_style</title>
<g id="Layer_2_1_">
	<g id="no_extra_costs_copy">
		<path class="st0" d="M38.2,51.3H25.4c-7.7,0-14,3.3-14,11v2h40.8v-2C52.2,54.6,45.9,51.3,38.2,51.3z"/>
		<path class="st0" d="M19,30.3c0,0.4,0,1.1,0,1.5c0,9,5.7,15.4,12.8,15.4s12.8-6.3,12.8-15.4c0-0.5,0-1.7-0.1-2.3"/>
		<path class="st0" d="M46,29.9c-4.1-1.2-7.1-1.6-7.1-6.1c0,5.4-4.4,6.5-9.9,6.5H17.6c0.5-9.4,6.7-14.7,14.2-14.7
			C39.2,15.7,45.3,20.7,46,29.9z"/>
		<path class="st0" d="M44.2,23.1c2.1-2.1,5-3.3,8-3.3l0,0c5.8,0,11.7,5.4,12.3,11.2l1.4,21.1"/>
		<line class="st0" x1="38.8" y1="51.3" x2="39.5" y2="44.3"/>
		<path class="st0" d="M52,60h16.6v-1.6c0-6.2-5.1-8.9-11.3-8.9H47.1c-2.6-0.1-5.3,0.5-7.6,1.8"/>
		<path class="st0" d="M43,39.6c1.7,4.1,5.2,6.6,9.2,6.6c5.7,0,10.3-5.1,10.3-12.4c0-0.4,0-0.8,0-1.3c-3-0.9-5.1-1.2-5.1-4.4
			c0,3.9-3.2,4.7-7.1,4.7h-5.6"/>
	</g>
</g>
</svg>
