<svg id="DouglasLogoLarge" xmlns="http://www.w3.org/2000/svg" viewBox="0 0 288.28346 52.72441">
  <title>DOUGLAS_LOGO_L_RGB_black</title>
  <path d="M60.78725,0A25.47786,25.47786,0,0,0,46.96152,3.99246a20.719,20.719,0,0,1,3.401,3.32705A21.161,21.161,0,0,1,60.78725,4.7318c12.27312,0,20.99738,9.02,20.99738,21.58885,0,12.49492-8.72426,21.441-20.99738,21.441-12.12524,0-20.8495-8.94607-20.8495-21.441a23.411,23.411,0,0,1,2.292-10.35082,13.17318,13.17318,0,0,0-3.401-3.62278,26.50261,26.50261,0,0,0-3.91852,13.9736c0,15.23049,10.86836,26.32066,25.877,26.32066,14.86082,0,26.02492-11.312,26.02492-26.32066S75.64807,0,60.78725,0Zm64.323,32.0136a23.53622,23.53622,0,0,1-.81328,6.28443c-1.77443,6.06262-6.802,9.46361-13.53,9.46361-6.6541,0-11.68164-3.401-13.45606-9.46361a23.53622,23.53622,0,0,1-.81328-6.28443V1.03508H91.47V32.53114a28.64622,28.64622,0,0,0,1.109,7.837c2.43984,7.68918,8.7982,12.27312,18.26181,12.27312s15.748-4.73181,18.2618-12.421a28.72473,28.72473,0,0,0,1.03508-7.837V1.03508H125.1102ZM37.49791,44.87819a19.35632,19.35632,0,0,1-4.2882,1.33082,39.06462,39.06462,0,0,1-8.05885.66541H9.84644V5.693H25.15086a39.06462,39.06462,0,0,1,8.05885.66541C42.89512,8.42852,48.2184,15.45229,48.2184,26.32065a24.59892,24.59892,0,0,1-2.07016,10.35082,16.62178,16.62178,0,0,0,3.32705,3.84459,27.113,27.113,0,0,0,3.77065-14.19541c0-13.16032-6.94983-21.88458-18.77934-24.47229a39.298,39.298,0,0,0-8.57639-.81328H4.8189V51.60623H25.89021a39.44193,39.44193,0,0,0,8.57639-.73935,24.977,24.977,0,0,0,6.35836-2.292A15.89033,15.89033,0,0,1,37.49791,44.87819ZM277.563,24.47229l-5.32327-2.5877c-4.52733-2.20078-7.09771-4.91935-7.09771-9.16787,0-4.7318,3.25312-8.13279,8.35459-8.13279,5.24934,0,8.20672,3.69673,9.02,9.53754h4.7318C286.36117,4.36213,280.66822,0,273.49658,0c-7.911,0-13.38213,5.693-13.38213,12.93852,0,6.61574,4.00312,10.82978,10.27688,13.75181l5.39722,2.51377c3.84459,1.77442,7.31951,4.65786,7.31951,9.83327s-3.69673,8.72427-9.16787,8.72427c-5.91476,0-10.20295-3.401-11.09017-11.45984h-5.02754c.81328,11.1641,7.17164,16.33951,16.04377,16.33951,8.65033,0,14.41721-5.76689,14.41721-13.82574S283.03412,27.13393,277.563,24.47229ZM233.572,1.03508,213.97937,51.60623h5.619l5.98869-16.04377h20.8495l6.06263,16.04377h5.76688L238.59953,1.03508Zm11.09017,29.79557H227.3615l5.84082-15.52623c1.03508-2.73557,1.9223-5.47114,2.80951-8.20672q1.33082,4.10337,2.88344,8.20672Zm-49.61-29.79557h-5.02754V51.60623h20.258l1.99623-4.73181H195.05216ZM155.71905,28.39082v4.7318h23.88082c-1.84836,8.7982-9.16787,14.639-18.85328,14.639-12.27311,0-20.77557-8.97692-20.77557-21.51492,0-12.49492,8.65032-21.51492,20.77557-21.51492,8.13279,0,14.78688,4.21426,17.74426,11.45984h5.39721C180.78282,6.21049,171.68888,0,160.74659,0c-14.78688,0-25.80311,11.312-25.80311,26.24672,0,15.42156,10.64655,26.39459,25.80311,26.39459,14.34328,0,24.62016-10.35082,24.47229-24.25049Z"/>
</svg>
