<?xml version="1.0" encoding="utf-8"?>
<!-- Generator: Adobe Illustrator 22.1.0, SVG Export Plug-In . SVG Version: 6.00 Build 0)  -->
<svg version="1.1" id="DouglasLogoLarge" xmlns="http://www.w3.org/2000/svg" xmlns:xlink="http://www.w3.org/1999/xlink" x="0px"
	 y="0px" viewBox="0 0 288.3 52.7" style="enable-background:new 0 0 288.3 52.7;" xml:space="preserve">
<style type="text/css">
	.st0{fill:#9BDCD2;}
</style>
<rect width="288.2" height="52.7"/>
<title>DOUGLAS_LOGO_L_RGB_black</title>
<path class="st0" d="M60.8,0C55.9,0,51.1,1.4,47,4c1.3,1,2.4,2.1,3.4,3.3c3.2-1.7,6.8-2.6,10.4-2.6c12.3,0,21,9,21,21.6
	c0,12.5-8.7,21.4-21,21.4C48.7,47.7,40,38.8,40,26.3c0-3.6,0.7-7.1,2.3-10.4c-0.9-1.4-2-2.6-3.4-3.6c-2.6,4.2-3.9,9-3.9,14
	c0,15.2,10.9,26.3,25.9,26.3c14.9,0,26-11.3,26-26.3S75.6,0,60.8,0z M125.1,32c0,2.1-0.3,4.2-0.8,6.3c-1.8,6.1-6.8,9.5-13.5,9.5
	s-11.7-3.4-13.5-9.5c-0.6-2-0.8-4.2-0.8-6.3V1h-5v31.5c0,2.7,0.4,5.3,1.1,7.8c2.4,7.7,8.8,12.3,18.3,12.3s15.7-4.7,18.3-12.4
	c0.7-2.6,1.1-5.2,1-7.8V1h-5L125.1,32z M37.5,44.9c-1.4,0.6-2.8,1.1-4.3,1.3c-2.7,0.5-5.4,0.7-8.1,0.7H9.8V5.7h15.3
	c2.7-0.1,5.4,0.2,8.1,0.7c9.7,2.1,15,9.1,15,20c0.1,3.6-0.6,7.1-2.1,10.4c0.9,1.4,2,2.7,3.3,3.8c2.5-4.3,3.8-9.2,3.8-14.2
	c0-13.2-6.9-21.9-18.8-24.5C31.6,1.3,28.8,1,25.9,1H4.8v50.6h21.1c2.9,0.1,5.8-0.2,8.6-0.7c2.2-0.5,4.4-1.2,6.4-2.3
	C39.5,47.5,38.4,46.3,37.5,44.9z M277.6,24.5l-5.3-2.6c-4.5-2.2-7.1-4.9-7.1-9.2c0-4.7,3.3-8.1,8.4-8.1c5.2,0,8.2,3.7,9,9.5h4.7
	C286.4,4.4,280.7,0,273.5,0c-7.9,0-13.4,5.7-13.4,12.9c0,6.6,4,10.8,10.3,13.8l5.4,2.5c3.8,1.8,7.3,4.7,7.3,9.8s-3.7,8.7-9.2,8.7
	c-5.9,0-10.2-3.4-11.1-11.5h-5c0.8,11.2,7.2,16.3,16,16.3c8.7,0,14.4-5.8,14.4-13.8S283,27.1,277.6,24.5z M233.6,1L214,51.6h5.6
	l6-16h20.8l6.1,16h5.8L238.6,1H233.6z M244.7,30.8h-17.3l5.8-15.5c1-2.7,1.9-5.5,2.8-8.2c0.9,2.7,1.8,5.5,2.9,8.2L244.7,30.8z
	 M195.1,1h-5v50.6h20.3l2-4.7h-17.2L195.1,1z M155.7,28.4v4.7h23.9c-1.8,8.8-9.2,14.6-18.9,14.6c-12.3,0-20.8-9-20.8-21.5
	s8.7-21.5,20.8-21.5c8.1,0,14.8,4.2,17.7,11.5h5.4c-3-10-12.1-16.2-23.1-16.2c-14.8,0-25.8,11.3-25.8,26.2
	c0,15.4,10.6,26.4,25.8,26.4c14.3,0,24.6-10.4,24.5-24.3L155.7,28.4z"/>
</svg>
