<?xml version="1.0" encoding="utf-8"?>
<!-- Generator: Adobe Illustrator 22.1.0, SVG Export Plug-In . SVG Version: 6.00 Build 0)  -->
<svg version="1.1" id="Layer_1" xmlns="http://www.w3.org/2000/svg" xmlns:xlink="http://www.w3.org/1999/xlink" x="0px" y="0px"
	 viewBox="0 0 80 80" style="enable-background:new 0 0 80 80;" xml:space="preserve">
<style type="text/css">
	.st0{fill:none;stroke:#1D1D1B;stroke-miterlimit:10;}
</style>
<title>points_style</title>
<g id="Layer_2_1_">
	<g id="Layer_23_copy">
		<path class="st0" d="M37.5,15h5c13.8,0,25,11.2,25,25l0,0c0,13.8-11.2,25-25,25h-5c-13.8,0-25-11.2-25-25l0,0
			C12.5,26.2,23.7,15,37.5,15z"/>
		<path class="st0" d="M37.5,15L37.5,15c13.8,0,25,11.2,25,25l0,0c0,13.8-11.2,25-25,25l0,0c-13.8,0-25-11.2-25-25l0,0
			C12.5,26.2,23.7,15,37.5,15z"/>
		<path class="st0" d="M37.5,22.5L37.5,22.5C47.2,22.5,55,30.3,55,40v0c0,9.7-7.8,17.5-17.5,17.5h0C27.8,57.5,20,49.7,20,40v0
			C20,30.3,27.8,22.5,37.5,22.5z"/>
		<line class="st0" x1="62.5" y1="40" x2="67.5" y2="40"/>
		<line class="st0" x1="65.4" y1="50" x2="60.4" y2="50"/>
		<line class="st0" x1="57.5" y1="60" x2="52.5" y2="60"/>
		<line class="st0" x1="65.4" y1="30" x2="60.4" y2="30"/>
		<line class="st0" x1="57.5" y1="20" x2="52.5" y2="20"/>
	</g>
</g>
</svg>
