<?xml version="1.0" encoding="utf-8"?>
<!-- Generator: Adobe Illustrator 22.1.0, SVG Export Plug-In . SVG Version: 6.00 Build 0)  -->
<svg version="1.1" id="Layer_1" xmlns="http://www.w3.org/2000/svg" xmlns:xlink="http://www.w3.org/1999/xlink" x="0px" y="0px"
	 viewBox="0 0 80 80" style="enable-background:new 0 0 80 80;" xml:space="preserve">
<style type="text/css">
	.st0{fill:none;stroke:#1D1D1B;stroke-miterlimit:10;}
</style>
<title>responsive_style</title>
<g id="Layer_2_1_">
	<g id="responsive_copy">
		<line class="st0" x1="61" y1="55.1" x2="28" y2="55.1"/>
		<line class="st0" x1="52.2" y1="63.1" x2="32.2" y2="63.1"/>
		<line class="st0" x1="37" y1="55.1" x2="35.6" y2="63.1"/>
		<line class="st0" x1="47.5" y1="55.1" x2="48.9" y2="63.1"/>
		<polyline class="st0" points="16.1,31.2 16.1,16.9 68.4,16.9 68.4,36 		"/>
		<polygon class="st0" points="28,63.1 16.1,63.1 4.1,63.1 4.1,47.1 4.1,31.2 16.1,31.2 28,31.2 28,47.1 		"/>
		<path d="M17.6,59.5c0,0.8-0.7,1.5-1.5,1.5c-0.8,0-1.5-0.7-1.5-1.5c0-0.8,0.7-1.5,1.5-1.5c0.4,0,0.8,0.2,1.1,0.4
			C17.4,58.8,17.6,59.2,17.6,59.5z"/>
		<circle cx="42.2" cy="51.6" r="1.5"/>
		<polygon class="st0" points="75.9,63.1 68.4,63.1 61,63.1 61,49.5 61,36 68.4,36 75.9,36 75.9,49.5 		"/>
		<circle cx="68.4" cy="59.5" r="1.5"/>
	</g>
</g>
</svg>
