<?xml version="1.0" encoding="utf-8"?>
<!-- Generator: Adobe Illustrator 22.1.0, SVG Export Plug-In . SVG Version: 6.00 Build 0)  -->
<svg version="1.1" id="Layer_1" xmlns="http://www.w3.org/2000/svg" xmlns:xlink="http://www.w3.org/1999/xlink" x="0px" y="0px"
	 viewBox="0 0 80 80" style="enable-background:new 0 0 80 80;" xml:space="preserve">
<style type="text/css">
	.st0{fill:none;stroke:#1D1D1B;stroke-miterlimit:10;}
</style>
<title>domain_style</title>
<g id="Layer_2_1_">
	<g id="no_extra_costs_copy">
		<path class="st0" d="M60.5,55.6c7.1,0.1,12.9-5.7,12.9-12.7S67.8,30,60.7,30c-0.7,0-1.5,0.1-2.2,0.2c-3.5-10-14.4-15.2-24.4-11.7
			c-7,2.5-12,8.8-12.7,16.2c-5.6-2.2-11.9,0.6-14.1,6.2s0.6,11.9,6.2,14.1c1.3,0.5,2.6,0.7,4,0.7h27.3"/>
		<rect x="44.8" y="48.3" class="st0" width="15.8" height="14.3"/>
		<path class="st0" d="M52.7,39.3L52.7,39.3c2.4,0,4.3,1.9,4.3,4.3l0,0v4.7l0,0h-8.6l0,0v-4.7C48.3,41.2,50.3,39.3,52.7,39.3
			L52.7,39.3z"/>
		<circle class="st0" cx="52.7" cy="55.5" r="1.5"/>
	</g>
</g>
</svg>
