<?xml version="1.0" encoding="utf-8"?>
<!-- Generator: Adobe Illustrator 22.1.0, SVG Export Plug-In . SVG Version: 6.00 Build 0)  -->
<svg version="1.1" id="Layer_1" xmlns="http://www.w3.org/2000/svg" xmlns:xlink="http://www.w3.org/1999/xlink" x="0px" y="0px"
	 viewBox="0 0 80 80" style="enable-background:new 0 0 80 80;" xml:space="preserve">
<style type="text/css">
	.st0{fill:none;stroke:#1D1D1B;stroke-miterlimit:10;}
</style>
<title>no_extra_cost_style</title>
<g id="Layer_2_1_">
	<g id="no_extra_costs_copy">
		<path class="st0" d="M34.4,26c-10.9,2.1-19,10-19,19.4c0,6.1,3.4,11.5,8.8,15.2l1.3,9.2h7.3v-5.3c5.1,1.3,10.5,1.3,15.6-0.1v5.4
			h7.3l1.3-9.4c2.9-2,5.3-4.7,6.9-7.9l6.5-0.8v-9.4l-5.6-1.6c-0.9-3-2.6-5.7-4.8-7.9l1.4-5.4l-8.2,0.7c-1.9-0.9-3.9-1.6-6-2.1"/>
		<line class="st0" x1="34" y1="34.2" x2="47.8" y2="34.2"/>
		<circle class="st0" cx="40.9" cy="19.4" r="9.2"/>
		<path class="st0" d="M15.8,47.1c-2.2,0.7-6.1-1.7-6.1-4.3"/>
		<circle cx="56.2" cy="40.7" r="1.5"/>
	</g>
</g>
</svg>
