<?xml version="1.0" encoding="utf-8"?>
<!-- Generator: Adobe Illustrator 22.1.0, SVG Export Plug-In . SVG Version: 6.00 Build 0)  -->
<svg version="1.1" id="Layer_1" xmlns="http://www.w3.org/2000/svg" xmlns:xlink="http://www.w3.org/1999/xlink" x="0px" y="0px"
	 viewBox="0 0 80 80" style="enable-background:new 0 0 80 80;" xml:space="preserve">
<style type="text/css">
	.st0{fill:none;stroke:#1D1D1B;stroke-miterlimit:10;}
</style>
<title>notification_style</title>
<g id="Layer_2_1_">
	<g id="notification_copy">
		<path class="st0" d="M46.3,64.1c0,3.5-2.8,6.3-6.3,6.3s-6.3-2.8-6.3-6.3l0,0"/>
		<path class="st0" d="M58.8,47.6V39c0-8.5-5.7-16-14-18.2c2.5-2.7,2.4-6.9-0.3-9.4c-2.7-2.5-6.9-2.4-9.4,0.3
			c-2.4,2.6-2.4,6.6,0,9.1c-8.2,2.2-14,9.7-14,18.2v8.6c0,6.9,0.7,12.5-6.3,12.5v3.9h50.1v-3.9C58.1,60.2,58.8,54.6,58.8,47.6z
			 M40,20.2c-2.2,0-3.9-1.8-3.9-3.9s1.8-3.9,3.9-3.9s3.9,1.8,3.9,3.9c0,0,0,0,0,0C43.9,18.5,42.2,20.2,40,20.2z"/>
	</g>
</g>
</svg>
