<?xml version="1.0" encoding="utf-8"?>
<!-- Generator: Adobe Illustrator 22.1.0, SVG Export Plug-In . SVG Version: 6.00 Build 0)  -->
<svg version="1.1" id="Layer_1" xmlns="http://www.w3.org/2000/svg" xmlns:xlink="http://www.w3.org/1999/xlink" x="0px" y="0px"
	 viewBox="0 0 80 80" style="enable-background:new 0 0 80 80;" xml:space="preserve">
<style type="text/css">
	.st0{fill:none;stroke:#1D1D1B;}
</style>
<title>online_booking_style</title>
<g id="Layer_2_1_">
	<g id="online_booking_copy">
		<line class="st0" x1="23.3" y1="62.5" x2="39.4" y2="62.5"/>
		<rect x="6.4" y="12.5" class="st0" width="50" height="10"/>
		<rect x="6.4" y="22.5" class="st0" width="50" height="10"/>
		<rect x="6.4" y="32.5" class="st0" width="50" height="10"/>
		<rect x="6.4" y="42.5" class="st0" width="50" height="10"/>
		<path class="st0" d="M11.4,57.5h40c2.8,0,5,2.2,5,5l0,0c0,2.8-2.2,5-5,5h-40c-2.8,0-5-2.2-5-5l0,0C6.4,59.7,8.6,57.5,11.4,57.5z"
			/>
		<polygon class="st0" points="63.7,38.3 66.6,47.2 68.6,43.4 72.6,42.5 		"/>
	</g>
</g>
</svg>
